<svg xmlns="http://www.w3.org/2000/svg" width="31" height="30" viewBox="0 0 31 30">
  <path  d="M456,5672.55l-0.2-.96-4.349-20.34-0.223-1.05-1.044.26-1.348.33a3.319,3.319,0,0,0-1.12-1.52,1.233,1.233,0,0,0-1.577.02,2.712,2.712,0,0,0-.586,2.11c0,0.06,0,.13.006,0.19l-0.9.22c-0.027-.07-0.065-0.13-0.1-0.2a3.206,3.206,0,0,0-1.017-1.3,1.221,1.221,0,0,0-1.577.02,2.572,2.572,0,0,0-.588,1.98c0,0.09,0,.18,0,0.26,0,0.02,0,.03,0,0.04l-0.9.22a0.283,0.283,0,0,1-.028-0.06c-0.035-.08-0.076-0.16-0.116-0.24a3.11,3.11,0,0,0-.962-1.18,1.221,1.221,0,0,0-1.577.02,2.441,2.441,0,0,0-.59,1.85c0,0.09,0,.18,0,0.26,0,0.06,0,.1,0,0.15l-0.908.23a1.718,1.718,0,0,0-.075-0.16c-0.037-.08-0.074-0.16-0.115-0.24a3.2,3.2,0,0,0-.908-1.08,1.221,1.221,0,0,0-1.577.03,2.3,2.3,0,0,0-.586,1.72c0,0.09,0,.18,0,0.27s0,0.17,0,.25l-0.235.06-0.687.15c-0.034-.08-0.076-0.16-0.115-0.24s-0.071-.16-0.115-0.24a3.152,3.152,0,0,0-.853-0.96,1.233,1.233,0,0,0-1.577.02,2.221,2.221,0,0,0-.581,1.6c0,0.09-.008.18-0.008,0.27s0,0.18,0,.26l-2.014.44-1.87,18.86,6.51-1.9,0.055,0.25,0.054,0.25,0.077,0.37-5.271,1.66-1.4.45,1.368,0.53,6.284,2.46,0.107,0.04H432.8l0.046,0.02,0.168-.05,12.7-3.54,0.5-.14,0-.01,8.853-2.45Zm-9.166-22.49c0.049-.05.052-0.05,0.073-0.04a0.726,0.726,0,0,1,.376.24,2.4,2.4,0,0,1,.462.66c0.022,0.04.044,0.08,0.064,0.12l-1.224.3c0-.06,0-0.11,0-0.17A1.806,1.806,0,0,1,446.831,5650.06Zm-4.139,1.04c0.05-.06.039-0.05,0.061-0.04a0.711,0.711,0,0,1,.369.24,2.4,2.4,0,0,1,.395.54,2.083,2.083,0,0,1,.12.22l-0.612.16-0.5.14v-0.01c0-.09-0.055-0.18-0.053-0.27A1.646,1.646,0,0,1,442.692,5651.1Zm-4.434,1.89a1.451,1.451,0,0,1,.244-0.85c0.049-.06.052-0.05,0.074-0.05a0.823,0.823,0,0,1,.375.25,2.521,2.521,0,0,1,.335.42q0.073,0.12.135,0.24c0.014,0.03.031,0.05,0.044,0.08l-1.212.3c0-.04,0-0.08,0-0.12Q438.251,5653.125,438.258,5652.99Zm-3.907.18c0.049-.05.046-0.04,0.068-0.04a0.785,0.785,0,0,1,.371.24,2.627,2.627,0,0,1,.263.32c0.053,0.08.1,0.16,0.14,0.24a1.7,1.7,0,0,1,.1.18s0,0.01.007,0.01l-1.107.28c0-.08-0.055-0.15-0.054-0.23s-0.019-.18-0.011-0.27A1.324,1.324,0,0,1,434.351,5653.17Zm-4.422,1.91c0.005-.09.012-0.19,0.024-0.27a1.161,1.161,0,0,1,.22-0.6c0.05-.05.053-0.05,0.074-0.04a0.726,0.726,0,0,1,.376.24c0.065,0.07.118,0.14,0.176,0.21s0.116,0.15.166,0.23,0.094,0.16.135,0.24l-1.176.25C429.923,5655.26,429.925,5655.17,429.929,5655.08Zm16,19.19-0.25.06-0.251.07-11.848,3.29-0.773-3.66-0.054-.25-0.054-.25-0.073-.35-0.053-.25-0.054-.26-3.382-15.99,2.277-.56a4.706,4.706,0,0,1-.064,1.72,0.522,0.522,0,0,0,1,.28,5.908,5.908,0,0,0,.06-2.24l3.167-.78a4.706,4.706,0,0,1-.066,1.7,0.521,0.521,0,0,0,1,.28,5.863,5.863,0,0,0,.062-2.22l3.166-.78a4.717,4.717,0,0,1-.068,1.69,0.52,0.52,0,0,0,1,.27,5.852,5.852,0,0,0,.065-2.2l3.165-.78a4.684,4.684,0,0,1-.069,1.67,0.522,0.522,0,0,0,1,.28,5.867,5.867,0,0,0,.068-2.19l2.664-.65,0.267-.07,0.233-.06c0.007,0.06.014,0.11,0.019,0.17a4.736,4.736,0,0,1-.091,1.49,0.52,0.52,0,0,0,1,.27,5.857,5.857,0,0,0,.071-2.17l1.345-.33,4.348,20.34Zm-9.127-5.74-3.176.76-0.762-3.16,3.176-.76Zm0.669-.2-0.762-3.16,3.177-.76,0.761,3.16Zm3.082-4.12,3.176-.76,0.762,3.16-3.176.76Zm7.021-1.72,0.762,3.16-1.417.34-0.266.07-0.268.06-1.226.29-0.761-3.16,2.279-.55,0.267-.06,0.267-.06Zm0.668-.2,3.177-.76,0.761,3.17-3.176.75Zm-7.924,1.26-0.762-3.16,3.176-.76,0.762,3.16Zm3.843-.96-0.762-3.16,3.177-.76,0.329,1.37,0.193,0.8,0.193,0.8,0.046,0.19-0.064.02-0.266.06-0.267.07Zm6.259-4.88,0.762,3.16-3.176.76-0.528-2.19-0.192-.8-0.043-.17,0.059-.02,0.267-.06Zm-12.658,14.49,0.038,0.15-2.207.53-0.969.23-0.044-.18-0.073-.3-0.061-.25-0.06-.25-0.524-2.18,3.176-.76,0.486,2.02,0.061,0.25,0.061,0.25,0.055,0.23Zm3.849-.95,0.033,0.14-1.971.48-1.2.28-0.041-.16-0.06-.26-0.052-.21-0.061-.25-0.061-.26-0.486-2.02,3.176-.76,0.449,1.87,0.061,0.25,0.061,0.25,0.035,0.15,0.061,0.25Zm3.651-1.76,0.228,0.94-0.569.14-0.252.06-0.253.06-2.1.5-0.036-.15-0.061-.25-0.061-.25-0.032-.13-0.06-.26L442,5669.9l-0.451-1.87,3.176-.76,0.413,1.72,0.061,0.25Z" transform="translate(-425 -5649)"/>
</svg>
