<svg xmlns="http://www.w3.org/2000/svg" width="41" height="39" viewBox="0 0 41 39">
  <path id="Forma_1" data-name="Forma 1" class="cls-1" d="M742,848.613l-0.27-1.24-5.751-26.447-0.3-1.361-1.38.333-1.783.428a4.3,4.3,0,0,0-1.482-1.973,1.64,1.64,0,0,0-2.085.027,3.474,3.474,0,0,0-.776,2.734c0,0.089.006,0.172,0.008,0.256l-1.183.285c-0.036-.09-0.086-0.173-0.127-0.26a4.191,4.191,0,0,0-1.345-1.693,1.64,1.64,0,0,0-2.086.028,3.3,3.3,0,0,0-.778,2.57c0,0.118,0,.233.008,0.344,0,0.018,0,.035,0,0.053l-1.191.288c-0.011-.027-0.026-0.051-0.037-0.078-0.046-.107-0.1-0.208-0.152-0.311a4.118,4.118,0,0,0-1.273-1.545,1.64,1.64,0,0,0-2.085.027,3.138,3.138,0,0,0-.78,2.408c0,0.118,0,.232,0,0.344,0,0.067,0,.13.006,0.194l-1.2.289c-0.029-.07-0.068-0.135-0.1-0.2-0.048-.107-0.1-0.212-0.152-0.313a4.066,4.066,0,0,0-1.2-1.4,1.638,1.638,0,0,0-2.085.027,2.977,2.977,0,0,0-.774,2.242c0,0.118,0,.232,0,0.346s0,0.227.007,0.336l-0.311.075-0.908.195c-0.045-.108-0.1-0.208-0.152-0.312s-0.094-.213-0.152-0.313A4.028,4.028,0,0,0,709,823.749a1.638,1.638,0,0,0-2.085.027,2.83,2.83,0,0,0-.769,2.077c0,0.117-.01.233-0.011,0.348s0,0.233,0,.344l-2.665.573-2.473,24.51,8.611-2.471,0.073,0.327,0.071,0.33,0.1,0.477-6.973,2.164-1.853.575,1.81,0.7,8.31,3.194,0.143,0.054v0.007l0.01,0L711.373,857l0.223-.06,16.79-4.6,0.657-.18,0-.013,11.709-3.192Zm-12.123-29.23c0.065-.073.069-0.064,0.1-0.059a1.036,1.036,0,0,1,.5.319,3.232,3.232,0,0,1,.612.847c0.028,0.055.058,0.107,0.083,0.163l-1.618.389c0-.072,0-0.147,0-0.221A2.309,2.309,0,0,1,729.873,819.383Zm-5.474,1.349c0.066-.074.052-0.065,0.08-0.06a1.013,1.013,0,0,1,.489.32,3.163,3.163,0,0,1,.523.7c0.055,0.1.111,0.187,0.158,0.288l-0.809.21-0.664.177v-0.019c0-.112-0.073-0.228-0.07-0.345A2.093,2.093,0,0,1,724.4,820.732Zm-5.864,2.455a1.879,1.879,0,0,1,.322-1.107c0.066-.074.07-0.065,0.1-0.06a1.031,1.031,0,0,1,.5.32,3.077,3.077,0,0,1,.443.555,3.344,3.344,0,0,1,.177.307c0.019,0.037.042,0.069,0.06,0.106l-1.6.387c0-.053,0-0.107,0-0.16C718.526,823.419,718.529,823.3,718.535,823.187Zm-5.168.241c0.065-.074.062-0.065,0.09-0.059a1.015,1.015,0,0,1,.491.319,2.965,2.965,0,0,1,.348.412,3.256,3.256,0,0,1,.185.3c0.045,0.077.1,0.151,0.135,0.232q0,0.011.009,0.024l-1.464.359c0-.1-0.073-0.2-0.071-0.3s-0.025-.234-0.015-0.349A1.674,1.674,0,0,1,713.367,823.428ZM707.52,825.9c0-.119.015-0.237,0.031-0.352a1.479,1.479,0,0,1,.291-0.773c0.066-.074.07-0.065,0.1-0.059a1.022,1.022,0,0,1,.5.319,3.169,3.169,0,0,1,.233.273,3.376,3.376,0,0,1,.221.3c0.063,0.1.123,0.2,0.177,0.307l-1.554.334C707.511,826.133,707.513,826.018,707.52,825.9Zm21.162,24.944-0.331.09-0.332.09-15.67,4.273-1.022-4.752-0.071-.331-0.072-.331-0.1-.448-0.07-.331-0.071-.33-4.473-20.787,3.011-.728a6.048,6.048,0,0,1-.084,2.235,0.688,0.688,0,0,0,1.327.359,7.518,7.518,0,0,0,.08-2.912L715,825.934a6.036,6.036,0,0,1-.087,2.213,0.689,0.689,0,0,0,1.328.359,7.522,7.522,0,0,0,.083-2.89l4.186-1.008a6,6,0,0,1-.09,2.191,0.689,0.689,0,0,0,1.328.359,7.526,7.526,0,0,0,.087-2.868l4.186-1.007a5.993,5.993,0,0,1-.093,2.169,0.689,0.689,0,0,0,1.328.359,7.5,7.5,0,0,0,.091-2.848l3.523-.848,0.354-.085,0.307-.074c0.01,0.071.019,0.141,0.026,0.213a6.027,6.027,0,0,1-.121,1.936,0.689,0.689,0,0,0,1.328.358,7.526,7.526,0,0,0,.1-2.826l1.777-.428,5.752,26.447Zm-12.071-7.451-4.2.986-1.008-4.113,4.2-.987Zm0.885-.26-1.008-4.114,4.2-.987,1.007,4.113Zm4.075-5.363,4.2-.987,1.008,4.112-4.2.988Zm9.286-2.233,1.008,4.113-1.874.44-0.352.083-0.355.083-1.62.38-1.008-4.113,3.015-.709,0.353-.083,0.353-.082Zm0.884-.261,4.2-.986,1.007,4.113-4.2.987Zm-10.48,1.642-1.008-4.114,4.2-.987,1.008,4.114Zm5.082-1.249-1.007-4.113,4.2-.987,0.436,1.78,0.255,1.041,0.255,1.04,0.061,0.253-0.085.02-0.352.082-0.352.084Zm8.278-6.348,1.008,4.114-4.2.987-0.7-2.846-0.255-1.041-0.056-.227,0.078-.018,0.352-.082Zm-16.74,18.835,0.05,0.2-2.919.685-1.282.3-0.058-.238-0.1-.39-0.081-.327-0.08-.328-0.693-2.829,4.2-.987,0.643,2.626,0.081,0.327,0.08,0.329,0.073,0.3Zm5.09-1.227,0.044,0.184-2.607.612-1.6.374-0.053-.216-0.08-.329-0.068-.281-0.081-.327-0.08-.328-0.644-2.632,4.2-.987,0.594,2.427,0.08,0.328,0.081,0.327,0.047,0.19,0.079,0.329Zm4.828-2.292,0.3,1.227-0.752.177-0.333.079-0.336.079-2.78.653-0.047-.195-0.081-.329-0.08-.328-0.042-.172-0.081-.328-0.08-.328-0.6-2.433,4.2-.987,0.546,2.229,0.08,0.329Z" transform="translate(-701 -818)"/>
</svg>
