<svg xmlns="http://www.w3.org/2000/svg" width="25" height="23" viewBox="0 0 25 23">
  <path id="Forma_1" data-name="Forma 1" class="cls-1" d="M806.637,1637.03l-10.2-17.84a2.171,2.171,0,0,0-3.873,0l-10.2,17.84a2.852,2.852,0,0,0-.081,2.63A2.268,2.268,0,0,0,784.3,1641h20.4a2.267,2.267,0,0,0,2.017-1.34A2.852,2.852,0,0,0,806.637,1637.03Zm-13.418-11.78a1.277,1.277,0,1,1,2.537,0v6.1a1.277,1.277,0,1,1-2.537,0v-6.1h0Zm1.244,12.67a1.792,1.792,0,1,1,1.586-1.78A1.693,1.693,0,0,1,794.463,1637.92Z" transform="translate(-782 -1618)"/>
</svg>
