<svg xmlns="http://www.w3.org/2000/svg" width="47" height="42" viewBox="0 0 47 42">
  <path d="M1034.78,817h-19.13a2.223,2.223,0,0,0-2.22,2.215v9.827a2.222,2.222,0,0,0,2.22,2.214h1.68v3.9a0.7,0.7,0,0,0,.4.627,0.777,0.777,0,0,0,.29.062,0.7,0.7,0,0,0,.46-0.168l5.13-4.422h11.17a2.222,2.222,0,0,0,2.22-2.214v-9.827A2.223,2.223,0,0,0,1034.78,817Zm-15.1,8.757a1.757,1.757,0,1,1,1.76-1.757A1.762,1.762,0,0,1,1019.68,825.756Zm5.53,0a1.757,1.757,0,1,1,1.77-1.757A1.76,1.76,0,0,1,1025.21,825.756Zm5.54,0a1.757,1.757,0,1,1,1.77-1.757A1.76,1.76,0,0,1,1030.75,825.756Zm-26.66.749c-4.311,0-6.7,2.224-6.653,6.51,0.063,5.87,2.563,9.431,6.653,9.369,0,0,6.65.268,6.65-9.369C1010.74,828.729,1008.49,826.505,1004.09,826.505Zm11.76,20.335-6.64-2.638-1.56-1.306a1.04,1.04,0,0,0-1.4.057l-2.16,2.143-2.17-2.143a1.041,1.041,0,0,0-1.4-.057l-1.555,1.306-6.644,2.638c-2.139.849-2.138,8.393-2.321,9.086A40.364,40.364,0,0,0,1004.05,859a40.872,40.872,0,0,0,14.13-3.073C1017.99,855.235,1017.99,847.687,1015.85,846.84Z" transform="translate(-990 -817)"/>
</svg>
