<svg xmlns="http://www.w3.org/2000/svg" width="27" height="21" viewBox="0 0 27 21">
  <path d="M1002.29,2330.3a2.318,2.318,0,0,1-1.7.7H978.411a2.323,2.323,0,0,1-1.7-.7,2.3,2.3,0,0,1-.708-1.69v-11.84a7.97,7.97,0,0,0,1.521,1.3q5.456,3.66,7.489,5.14c0.572,0.42,1.037.75,1.394,0.98a8.614,8.614,0,0,0,1.423.72,4.437,4.437,0,0,0,1.658.36h0.03a4.432,4.432,0,0,0,1.657-.36,8.629,8.629,0,0,0,1.424-.72c0.357-.23.821-0.56,1.394-0.98q2.561-1.83,7.5-5.14a8,8,0,0,0,1.51-1.3v11.84A2.3,2.3,0,0,1,1002.29,2330.3Zm-1.87-13.83c-3.773,2.6-6.124,4.21-7.048,4.85l-0.64.45q-0.49.36-.814,0.57c-0.216.15-.477,0.31-0.783,0.49a4.5,4.5,0,0,1-.867.4,2.386,2.386,0,0,1-.753.13h-0.03a2.391,2.391,0,0,1-.754-0.13,4.524,4.524,0,0,1-.866-0.4c-0.307-.18-0.568-0.34-0.784-0.49s-0.487-.33-0.813-0.57l-0.641-.45c-0.914-.64-2.229-1.54-3.947-2.72s-2.747-1.89-3.089-2.13a7.478,7.478,0,0,1-1.762-1.72,3.46,3.46,0,0,1-.829-2.04,3.008,3.008,0,0,1,.625-1.94,2.177,2.177,0,0,1,1.785-.77h22.18a2.311,2.311,0,0,1,1.69.7,2.27,2.27,0,0,1,.72,1.68,3.956,3.956,0,0,1-.74,2.26A7.116,7.116,0,0,1,1000.42,2316.47Z" transform="translate(-976 -2310)"/>
</svg>
