<svg xmlns="http://www.w3.org/2000/svg" width="23.969" height="27.56" viewBox="0 0 23.969 27.56">
  <path class="cls-1" d="M415.006,2333.39s-0.129,1.68-.259,2.42c0,0-4.387,2.77-11.734,2.77s-11.733-2.77-11.733-2.77c-0.13-.74-0.26-2.42-0.26-2.42-0.088-1.24.018-3.75,2.265-4.31a18.88,18.88,0,0,0,5.459-2.41l1.917,5.85,0.359,1.11,0.006-.02,0.313,0.94,1.008-2.77c-2.476-3.35.5-3.32,0.666-3.31,0.166-.01,3.143-0.04.667,3.31l1.008,2.77,0.312-.94,0.006,0.02,0.36-1.11,1.91-5.85a18.893,18.893,0,0,0,5.46,2.41C414.983,2329.64,415.089,2332.15,415.006,2333.39Zm-6.928-10.7a5.985,5.985,0,0,1-3.715,4.44,4.151,4.151,0,0,1-2.718,0,5.873,5.873,0,0,1-3.7-4.44c-0.283-.02-0.654-0.4-1.061-1.77-0.548-1.88.036-2.16,0.531-2.12a4.354,4.354,0,0,1-.212-0.77,5.094,5.094,0,0,1,1.48-5.01,6.842,6.842,0,0,1,1.379-1.11,5.58,5.58,0,0,1,1.345-.67,4.817,4.817,0,0,1,1.22-.22,5.135,5.135,0,0,1,3.06.63,3.794,3.794,0,0,1,1.492,1.34s2.476,0.17,1.639,5.04a4.99,4.99,0,0,1-.212.77c0.5-.05,1.079.23,0.531,2.11C408.733,2322.29,408.361,2322.67,408.078,2322.69Z" transform="translate(-391.031 -2311)"/>
</svg>
