<svg xmlns="http://www.w3.org/2000/svg" width="27" height="24.97" viewBox="0 0 27 24.97">
  <path class="cls-1" d="M409.825,1733.29h0a2.357,2.357,0,0,1-2.346-2.36v-3.92a2.348,2.348,0,0,1,2.346-2.35h6.225v-3.9a1.812,1.812,0,0,0-1.81-1.82H391.809a1.811,1.811,0,0,0-1.809,1.82v16.42a1.811,1.811,0,0,0,1.809,1.82H414.24a1.812,1.812,0,0,0,1.81-1.82v-3.9c-0.037,0-.074.01-0.111,0.01h-6.114Zm6.114-7.34h-6.114a1.057,1.057,0,0,0-1.06,1.06v3.92a1.057,1.057,0,0,0,1.06,1.06h6.114a1.058,1.058,0,0,0,1.061-1.06v-3.92A1.058,1.058,0,0,0,415.939,1725.95Zm-4.007,4.56a1.54,1.54,0,1,1,1.531-1.54A1.536,1.536,0,0,1,411.932,1730.51Zm-0.842-14.9a2.331,2.331,0,0,0-2.951-1.49l-9.191,3.05H411.6Z" transform="translate(-390 -1714.03)"/>
</svg>
