<svg xmlns="http://www.w3.org/2000/svg" width="21.531" height="25.16" viewBox="0 0 21.531 25.16">
  <path class="cls-1" d="M705.164,2328.73a0.629,0.629,0,0,1-.754.46,0.62,0.62,0,0,1-.464-0.75,3.7,3.7,0,0,0-.489-3.39,1.924,1.924,0,0,0-1.846-.46c-1.567.29-2.566,1.63-3.722,3.18a13.752,13.752,0,0,1-3.676,3.76,9.924,9.924,0,0,1-5.084,1.47c-0.164,0-.326,0-0.488-0.01a5.429,5.429,0,0,1-4.257-2.04,3.376,3.376,0,0,1,.368-4.12l-0.634-.84a1.44,1.44,0,0,1,.278-2.01l4.089-3.12a1.436,1.436,0,0,1,.891-0.3,1.482,1.482,0,0,1,1.17.58l1.509,1.99a13.531,13.531,0,0,0,4.066-2.94,13.776,13.776,0,0,0,2.942-4.1l-2.013-1.53a1.44,1.44,0,0,1-.278-2.01l3.109-4.12a1.473,1.473,0,0,1,1.17-.57,1.436,1.436,0,0,1,.891.3l2.353,1.79s0.006,0.01.009,0.01c0.018,0.01.034,0.03,0.05,0.04s0.03,0.03.043,0.05,0.016,0.02.024,0.03c0.016,0.03.033,0.05,0.046,0.08,0,0,0,.01.008,0.01,0.016,0.04.029,0.07,0.039,0.1v0.01c0.059,0.21,1.372,5.38-5.753,12.54-5.121,5.14-9.237,5.91-11.235,5.91h0a4.553,4.553,0,0,1-1.276-.14h0l-0.1-.03c-0.008-.01-0.017-0.01-0.026-0.02a0.209,0.209,0,0,1-.066-0.04l-0.041-.03a0.14,0.14,0,0,1-.041-0.04,0.175,0.175,0,0,1-.047-0.05s-0.007,0-.01-0.01l-0.381-.5a2.042,2.042,0,0,0-.124,2.38c1.2,1.72,4.931,2.18,8.138.22a12.515,12.515,0,0,0,3.327-3.44c1.258-1.68,2.447-3.28,4.5-3.66a3.205,3.205,0,0,1,2.985.82A4.885,4.885,0,0,1,705.164,2328.73Z" transform="translate(-683.813 -2307.84)"/>
</svg>
