<svg xmlns="http://www.w3.org/2000/svg" width="26" height="26" viewBox="0 0 26 26">
  <path  d="M437.972,5828.08c2.332,2.31,5.032,4.53,6.091,3.46,1.518-1.53,2.451-2.86,5.819-.17s0.8,4.5-.674,5.99c-1.7,1.71-8.048.12-14.345-6.15s-7.933-12.61-6.236-14.33c1.47-1.48,3.259-4.07,5.969-.71s1.389,4.29-.128,5.83C433.408,5823.07,435.639,5825.75,437.972,5828.08Zm3.382-11.07a1.507,1.507,0,0,0-1.2.38,1.376,1.376,0,0,0,.006,1.92,1.464,1.464,0,0,0,.761.38,6.567,6.567,0,0,1,5.4,5.41,1.553,1.553,0,0,0,.384.77,1.369,1.369,0,0,0,1.914,0,1.509,1.509,0,0,0,.383-1.2A9.249,9.249,0,0,0,441.354,5817.01Zm6.6,1.05c2.552,2.56,3.639,5.46,3.285,7.81a1.543,1.543,0,0,0,.362,1.23,1.354,1.354,0,0,0,1.924,0,1.706,1.706,0,0,0,.4-0.86c0.293-2.03-.076-6.12-4.051-10.1s-8.055-4.36-10.083-4.06a1.685,1.685,0,0,0-.863.4,1.36,1.36,0,0,0,0,1.92,1.538,1.538,0,0,0,1.229.37C442.506,5814.41,445.4,5815.5,447.953,5818.06Z" transform="translate(-428 -5812)"/>
</svg>
