<svg xmlns="http://www.w3.org/2000/svg" width="30" height="40.5" viewBox="0 0 30 40.5">
  <path id="Shape_2_copy" data-name="Shape 2 copy" class="cls-1" d="M429,816.5a14.971,14.971,0,0,0-15,14.909,14.474,14.474,0,0,0,1.312,6.086c3.75,8.157,10.94,16.769,13.055,19.214a0.839,0.839,0,0,0,1.265,0c2.115-2.445,9.3-11.056,13.056-19.214A14.474,14.474,0,0,0,444,831.41,14.972,14.972,0,0,0,429,816.5Zm0,22.653a7.745,7.745,0,1,1,7.792-7.744A7.776,7.776,0,0,1,429,839.154Z" transform="translate(-414 -816.5)"/>
</svg>
