<svg xmlns="http://www.w3.org/2000/svg" width="31" height="31" viewBox="0 0 31 31">
  <defs>
    <style>
      .cls-1 {
        fill: #38414a;
        fill-rule: evenodd;
      }
    </style>
  </defs>
  <path class="cls-1" d="M404.5,2207a15.5,15.5,0,1,0-15.5-15.5A15.517,15.517,0,0,0,404.5,2207Zm0-29.95a14.45,14.45,0,1,1-14.453,14.45A14.466,14.466,0,0,1,404.5,2177.05Zm1.574,19.74a0.536,0.536,0,0,0,.744,0,0.522,0.522,0,0,0,0-.74l-4.764-4.77,4.764-4.77a0.525,0.525,0,0,0-.744-0.74l-5.134,5.14a0.52,0.52,0,0,0,0,.74Z" transform="translate(-389 -2176)"/>
</svg>
