<svg xmlns="http://www.w3.org/2000/svg" width="29.406" height="20.43" viewBox="0 0 29.406 20.43">
  <path id="_copy_2" data-name=",, copy 2" class="cls-1" d="M395.77,1054v1.82a3.349,3.349,0,0,1-.77,2.45,2.759,2.759,0,0,1-2.03.77H391.5v4.76h2.8a7.741,7.741,0,0,0,6.02-2.66,10.3,10.3,0,0,0,2.38-7.14v-10.64H391.5V1054h4.27Zm18.2,0v1.82a3.349,3.349,0,0,1-.77,2.45,2.759,2.759,0,0,1-2.03.77H409.7v4.76h2.8a7.741,7.741,0,0,0,6.02-2.66,10.3,10.3,0,0,0,2.38-7.14v-10.64H409.7V1054h4.27Z" transform="translate(-391.5 -1043.38)"/>
</svg>
