<svg xmlns="http://www.w3.org/2000/svg" width="41.031" height="47" viewBox="0 0 41.031 47">
  <path d="M428.47,1325a1.113,1.113,0,0,0,1.6,0l1.6-1.58a1.1,1.1,0,0,0,0-1.58l-3.616-3.59a1.131,1.131,0,0,0-1.6,0l-1.6,1.59a1.1,1.1,0,0,0,0,1.58l0.153,0.15-1.124,1.12a19.854,19.854,0,0,0-10.043-4.14v-2.03h1.239a1.123,1.123,0,0,0,1.125-1.11v-3.3a1.118,1.118,0,0,0-1.125-1.11H407.9a1.122,1.122,0,0,0-1.124,1.11v3.3a1.118,1.118,0,0,0,1.124,1.11h1.239v2.03a19.983,19.983,0,0,0-10.043,4.14l-1.124-1.12,0.153-.15a1.1,1.1,0,0,0,0-1.58l-1.6-1.59a1.131,1.131,0,0,0-1.6,0l-3.616,3.59a1.1,1.1,0,0,0,0,1.58l1.6,1.58a1.113,1.113,0,0,0,1.6,0l0.153-.15,1.125,1.11a19.6,19.6,0,0,0-4.28,12.24,19.984,19.984,0,0,0,39.967,0,19.669,19.669,0,0,0-4.28-12.24l1.124-1.11Zm-16.982,28.42a15.211,15.211,0,1,1,15.346-15.21A15.3,15.3,0,0,1,411.488,1353.42Zm9.647-20.87a1.23,1.23,0,0,0-1.6-.47l-6.912,3.36a3.057,3.057,0,0,0-2.709.19,2.99,2.99,0,0,0-1.073,4.12,3.059,3.059,0,0,0,4.165,1.07,3.028,3.028,0,0,0,1.47-2.26l6.3-4.39A1.2,1.2,0,0,0,421.135,1332.55Zm-8.369,5.99a1.332,1.332,0,1,1-.958-1.61A1.324,1.324,0,0,1,412.766,1338.54Zm3.041-7.88a1.244,1.244,0,0,0,1.7-.47,1.219,1.219,0,0,0-.473-1.68,1.246,1.246,0,0,0-1.7.47,1.227,1.227,0,0,0,.013,1.24A1.524,1.524,0,0,0,415.807,1330.66Zm-4.4-1.14a1.235,1.235,0,1,0-1.252-1.22,1.281,1.281,0,0,0,.166.62A1.224,1.224,0,0,0,411.412,1329.52Zm0.166,17.4h0a1.254,1.254,0,0,0-1.239,1.25,1.214,1.214,0,0,0,.166.61A1.239,1.239,0,1,0,411.578,1346.92Zm4.37-1.2a1.212,1.212,0,0,0-.435,1.68h0a1.233,1.233,0,0,0,1.713.43,1.212,1.212,0,0,0,.434-1.68A1.273,1.273,0,0,0,415.948,1345.72Zm4.881-3.67a1.259,1.259,0,0,0-1.7.46,1.23,1.23,0,0,0,.013,1.24,1.185,1.185,0,0,0,.46.45,1.253,1.253,0,0,0,1.7-.47A1.226,1.226,0,0,0,420.829,1342.05Zm-18.131-3.73a1.25,1.25,0,0,0-1.253-1.23,1.263,1.263,0,0,0-1.239,1.26A1.246,1.246,0,0,0,402.7,1338.32Zm-0.473,3.9a1.222,1.222,0,0,0-.435,1.69h0a1.259,1.259,0,0,0,1.713.43,1.242,1.242,0,0,0,.434-1.7A1.27,1.27,0,0,0,402.225,1342.22Zm18.042-4.07a1.191,1.191,0,0,0,.179.62,1.267,1.267,0,0,0,1.086.6A1.235,1.235,0,1,0,420.267,1338.15Zm-18.131-3.71a1.252,1.252,0,0,0,1.7-.47h0a1.237,1.237,0,0,0-.486-1.69,1.242,1.242,0,0,0-1.686,1.71A1.365,1.365,0,0,0,402.136,1334.44Zm4.868-3.69a0.012,0.012,0,0,0,.013-0.01c0.012,0,.012,0,0.012-0.01h0.013a1.235,1.235,0,0,0,.434-1.69,1.26,1.26,0,0,0-1.712-.44,0.011,0.011,0,0,0-.012.01c-0.013,0-.013.01-0.026,0.01a1.225,1.225,0,0,0-.434,1.69h0A1.267,1.267,0,0,0,407,1330.75Zm0.166,15.06a1.241,1.241,0,0,0-1.687,1.71,1.332,1.332,0,0,0,.46.45,1.262,1.262,0,0,0,1.7-.47A1.231,1.231,0,0,0,407.17,1345.81Z" transform="translate(-391 -1311)"/>
</svg>
