<svg xmlns="http://www.w3.org/2000/svg" width="101" height="27" viewBox="0 0 101 27">
  <defs>
    <style>
      .cls-1 {
        fill: #fff;
      }

      .cls-1, .cls-2 {
        fill-rule: evenodd;
      }

      .cls-2 {
        fill: #d25627;
      }
    </style>
  </defs>
  <path class="cls-1" d="M1467.83,4011.82a0.882,0.882,0,0,0-.92-0.82,0.892,0.892,0,0,0-.92.85v6.88a7.061,7.061,0,0,0-5.91-1.9,6.525,6.525,0,0,0-5.44,7.08,6.6,6.6,0,0,0,9.23,5.35,6.538,6.538,0,0,0,3.96-6.33C1467.84,4021.11,1467.83,4013.07,1467.83,4011.82Zm-6.63,16.26a4.805,4.805,0,1,1,4.79-4.77A4.754,4.754,0,0,1,1461.2,4028.08Zm-7.98-5.1c-0.09-1.91-1.93-6.23-6.51-6.23a6.62,6.62,0,1,0,0,13.24,7.166,7.166,0,0,0,1.41-.15,0.01,0.01,0,0,1,.01-0.01,6.574,6.574,0,0,0,3.4-1.97,0.837,0.837,0,0,0,.04-1.23,0.883,0.883,0,0,0-1.25-.01c-0.21.18-.41,0.37-0.62,0.54a4.983,4.983,0,0,1-7.68-2.28c-0.19-.56-0.18-0.58.44-0.58,3.17,0,6.33,0,9.5-.01A1.057,1.057,0,0,0,1453.22,4022.98Zm-2.39-.47h-8.51c-0.4,0-.5-0.11-0.4-0.51a4.826,4.826,0,0,1,9.34-.04C1451.36,4022.38,1451.26,4022.51,1450.83,4022.51Zm44.21,1.22a6.521,6.521,0,0,0-3.95-6.33,6.553,6.553,0,1,0-3.79,12.43,6.505,6.505,0,0,0,5.16-1.29c0.21-.15.75-0.61,0.75-0.61v1.26a0.919,0.919,0,0,0,.92.85,0.94,0.94,0,0,0,.65-0.27,0.9,0.9,0,0,0,.27-0.56C1495.05,4027.96,1495.05,4025.55,1495.04,4023.73Zm-1.84-.38a4.787,4.787,0,0,1-4.72,4.84,4.805,4.805,0,1,1-.06-9.61A4.746,4.746,0,0,1,1493.2,4023.35Zm-12.93,5.62a0.9,0.9,0,0,1-.96.85,5.64,5.64,0,0,1-4.32-1.88,6.449,6.449,0,0,1-1.6-4.68c-0.01-1.45.01-11.35,0.01-11.35a0.927,0.927,0,0,1,.91-0.91,0.939,0.939,0,0,1,.92.93c0,0.66-.01.93-0.01,6.14,0,0.47-.04.71,0.41,0.71h3.85a0.817,0.817,0,0,1,.83.81,0.855,0.855,0,0,1-.24.6,0.825,0.825,0,0,1-.54.25h-3.93c-0.26,0-.37.2-0.37,0.54v2.9a4.118,4.118,0,0,0,3.62,4.11c0.19,0.02.39,0.04,0.58,0.07A0.885,0.885,0,0,1,1480.27,4028.97Zm-40.51-11.67a0.842,0.842,0,0,1-.07.35l-5.09,11.54a0.836,0.836,0,0,1-.71.36,0.934,0.934,0,0,1-.89-0.64c-0.04-.08-4.92-11.35-4.92-11.35a0.842,0.842,0,0,1-.07-0.35,0.882,0.882,0,0,1,1.69-.36l4.23,9.51v0.01l4.14-9.42a0.888,0.888,0,0,1,1.16-.46A0.876,0.876,0,0,1,1439.76,4017.3Z" transform="translate(-1428 -4011)"/>
  <path class="cls-2" d="M1461.21,4024.48a1.335,1.335,0,1,1,1.36-1.33A1.4,1.4,0,0,1,1461.21,4024.48Z" transform="translate(-1428 -4011)"/>
  <path class="cls-2" d="M1471.32,4037.23a0.768,0.768,0,0,1-.77.76h-0.13a0.762,0.762,0,0,1-.77-0.76v-25.47a0.764,0.764,0,0,1,.77-0.77h0.13a0.77,0.77,0,0,1,.77.77v25.47Z" transform="translate(-1428 -4011)"/>
  <path class="cls-2" d="M1473.82,4032.49a6.313,6.313,0,0,1,1.79-.01,2.7,2.7,0,0,1,.61,5.2,4.462,4.462,0,0,1-2.4.16v-5.35Zm0.38,2.69v2.23c0,0.08,0,.16.12,0.17a3.791,3.791,0,0,0,1.99-.34,2.362,2.362,0,0,0,.29-3.98,3.348,3.348,0,0,0-2.27-.46c-0.12.01-.13,0.09-0.13,0.19v2.19Zm8.75,2.78a4.642,4.642,0,0,1-.65-0.11,2.743,2.743,0,0,1-2.03-2.4,2.775,2.775,0,0,1,2.38-3.04c0.02,0,.03-0.01.05-0.01h0.73a3,3,0,0,1,1.35.53,0.55,0.55,0,0,1,.09.07c0.17,0.13.16,0.24-.03,0.35-0.07.05-.1-0.01-0.15-0.04a2.626,2.626,0,0,0-1.22-.56,2.332,2.332,0,0,0-2.73,1.91,2.478,2.478,0,0,0,.68,2.31,2.334,2.334,0,0,0,1.98.65,2.821,2.821,0,0,0,1.13-.39,0.3,0.3,0,0,0,.16-0.3c-0.01-.26-0.01-0.53,0-0.79a0.139,0.139,0,0,0-.16-0.17c-0.2.01-.4,0-0.61,0.01a0.135,0.135,0,0,1-.16-0.16c0.01-.11.04-0.17,0.16-0.16h1c0.12-.01.16,0.05,0.16,0.17v1.3a0.266,0.266,0,0,1-.11.22,2.668,2.668,0,0,1-1.5.59,0.359,0.359,0,0,1-.11.02h-0.41Zm12.06-.11a0.185,0.185,0,0,1-.22-0.17c-0.17-.4-0.35-0.81-0.52-1.22a0.209,0.209,0,0,0-.22-0.14q-1.155.015-2.31,0a0.23,0.23,0,0,0-.24.16c-0.17.42-.34,0.83-0.52,1.24a0.336,0.336,0,0,1-.39.12c-0.07-.05-0.01-0.11.01-0.16,0.15-.37.32-0.75,0.48-1.13,0.55-1.3,1.11-2.61,1.67-3.91a0.227,0.227,0,0,1,.01-0.04,0.216,0.216,0,0,1,.15-0.18,0.193,0.193,0,0,1,.14.17c0.51,1.21,1.01,2.42,1.52,3.63,0.2,0.47.4,0.95,0.6,1.43C1495.26,4037.85,1495.26,4037.85,1495.01,4037.85Zm-2.1-4.65a0.078,0.078,0,0,0-.03.04l-1.11,2.64c-0.06.13,0.03,0.12,0.11,0.12h1.81c0.37,0,.37,0,0.23-0.35C1493.58,4034.84,1493.25,4034.03,1492.91,4033.2Zm-4.07,2.13c0-.78,0-1.55.01-2.33a0.157,0.157,0,0,0-.2-0.19c-0.36.01-.71,0-1.06,0-0.12,0-.18-0.02-0.18-0.16a0.146,0.146,0,0,1,.18-0.17c0.97,0.01,1.93.01,2.9,0a0.145,0.145,0,0,1,.18.17c0,0.15-.07.16-0.19,0.16h-1.03c-0.22,0-.22,0-0.22.22v4.62a0.216,0.216,0,0,1-.33.19,0.167,0.167,0,0,1-.05-0.19C1488.84,4036.88,1488.84,4036.1,1488.84,4035.33Zm-2.27-.15v2.43c0,0.23-.07.29-0.3,0.24a0.1,0.1,0,0,1-.08-0.08c0-.04-0.01-0.07-0.01-0.1v-4.99a0.165,0.165,0,0,1,.19-0.2,0.175,0.175,0,0,1,.21.21C1486.57,4033.52,1486.57,4034.35,1486.57,4035.18Zm-7.65-.02v-2.45c0-.21.03-0.24,0.25-0.23a0.131,0.131,0,0,1,.14.14v5.02c0,0.2-.01.2-0.21,0.21-0.15.01-.18-0.05-0.18-0.19v-2.5Zm29.72-2.73a3,3,0,0,1,1.35.53,0.55,0.55,0,0,0,.09.07c0.17,0.13.16,0.24-.03,0.35-0.07.05-.11-0.01-0.15-0.04a2.626,2.626,0,0,0-1.22-.56,2.322,2.322,0,0,0-2.73,1.91,2.453,2.453,0,0,0,.68,2.31,2.334,2.334,0,0,0,1.98.65,2.874,2.874,0,0,0,1.13-.39,0.321,0.321,0,0,0,.16-0.3c-0.01-.26-0.01-0.52,0-0.79,0-.12-0.04-0.17-0.16-0.16-0.21,0-.41-0.01-0.61,0a0.16,0.16,0,0,1,0-.32h0.99a0.142,0.142,0,0,1,.17.17v1.3a0.251,0.251,0,0,1-.12.22,2.638,2.638,0,0,1-1.49.59l-0.11.03h-0.41c-0.22-.04-0.44-0.06-0.65-0.11a2.79,2.79,0,0,1,.35-5.45c0.02,0,.03-0.01.05-0.01h0.73Zm5.61,5.44c-0.04,0-.08.01-0.13,0.01h-2.55a0.146,0.146,0,0,1-.18-0.18v-5a0.165,0.165,0,0,1,.2-0.19c0.77,0.01,1.55.01,2.33,0.01,0.11,0,.21,0,0.21.16s-0.09.16-.21,0.16h-1.93c-0.21,0-.21,0-0.21.22v1.34c0,0.21,0,.21.22,0.21h1.49a0.139,0.139,0,0,1,.17.17,0.135,0.135,0,0,1-.16.16c-0.51-.01-1.02,0-1.52-0.01a0.163,0.163,0,0,0-.2.2v2.26a0.156,0.156,0,0,0,.19.19c0.69-.01,1.38-0.01,2.08-0.01,0.06,0,.13.01,0.2,0.01v0.29Zm-18.37-5.32a0.541,0.541,0,0,1,.28-0.03,0.1,0.1,0,0,1,.1.12,0.915,0.915,0,0,1,.01.17v4.55c0,0.21,0,.21.21,0.21,0.6,0,1.21.01,1.82,0a0.136,0.136,0,0,1,.16.17c0,0.13-.07.14-0.17,0.14h-1.95c-0.15,0-.3-0.01-0.46-0.01v-5.32Zm6.96,3.81c-0.37,0-.74,0-1.11-0.01a0.266,0.266,0,0,0-.29.2c-0.16.4-.33,0.79-0.5,1.18a0.322,0.322,0,0,1-.4.14c-0.08-.04-0.02-0.1,0-0.15,0.19-.44.38-0.89,0.57-1.34l1.59-3.72c0.03-.08.04-0.21,0.16-0.2s0.12,0.12.15,0.2q1.05,2.49,2.1,5c0.03,0.06.14,0.14,0.02,0.21a0.3,0.3,0,0,1-.37-0.1c-0.11-.25-0.21-0.5-0.32-0.75-0.08-.17-0.16-0.35-0.23-0.53a0.193,0.193,0,0,0-.2-0.14C1503.62,4036.36,1503.23,4036.36,1502.84,4036.36Zm0.01-3.15c-0.19.44-.35,0.84-0.52,1.24-0.2.48-.41,0.96-0.61,1.45-0.02.06-.06,0.13,0.06,0.13h2.1c0.1,0,.11-0.05.08-0.13-0.05-.12-0.11-0.24-0.16-0.36C1503.49,4034.77,1503.18,4034.01,1502.85,4033.21Zm12.5-.69c0.08-.1.14-0.03,0.2,0.02l1.8,1.38c0.35,0.26.7,0.53,1.04,0.8,0.04,0.02.08,0.09,0.13,0.06a0.188,0.188,0,0,0,.03-0.15c0-.63,0-1.27-0.01-1.91,0-.13.02-0.21,0.18-0.21s0.19,0.08.19,0.22v4.95a0.2,0.2,0,0,1-.3.19c-0.09-.03-0.06-0.11-0.06-0.18,0-.7-0.01-1.4,0-2.1a0.5,0.5,0,0,0-.24-0.48c-0.82-.61-1.62-1.23-2.43-1.85a0.462,0.462,0,0,0-.15-0.09,0.334,0.334,0,0,0-.01.17c-0.01,1.41-.01,2.81-0.01,4.21,0,0.36,0,.36-0.36.32v-5.35Zm7.11,5.48a3.119,3.119,0,0,1-1.12-.31,2.673,2.673,0,0,1-1.46-2.19,2.731,2.731,0,0,1,.76-2.26,2.658,2.658,0,0,1,1.59-.79,0.185,0.185,0,0,1,.07-0.02h0.73a3.206,3.206,0,0,1,1.45.6c0.16,0.13.16,0.14,0.04,0.3-0.07.09-.12,0.08-0.2,0.01a2.617,2.617,0,0,0-1.1-.53,2.36,2.36,0,0,0-2.91,2.01,2.406,2.406,0,0,0,1.18,2.53,2.437,2.437,0,0,0,2.37.04,1.826,1.826,0,0,0,.5-0.31c0.13-.11.19-0.03,0.27,0.06,0.09,0.11.03,0.16-.05,0.22a2.762,2.762,0,0,1-1.58.61l-0.13.03h-0.41Zm6.54-5.41c-0.23.32-.47,0.65-0.69,0.98l-0.96,1.38a0.586,0.586,0,0,0-.09.31v2.44c0,0.06.03,0.14-.05,0.16a0.342,0.342,0,0,1-.28,0c-0.07-.03-0.04-0.11-0.04-0.17v-2.36a0.671,0.671,0,0,0-.14-0.45c-0.49-.72-0.98-1.45-1.47-2.18a0.18,0.18,0,0,1-.07-0.15,0.177,0.177,0,0,1,.16-0.03,0.323,0.323,0,0,1,.36.18c0.43,0.64.86,1.27,1.29,1.91,0.07,0.1.1,0.1,0.17,0,0.41-.61.83-1.2,1.22-1.81a0.512,0.512,0,0,1,.59-0.28v0.07Z" transform="translate(-1428 -4011)"/>
</svg>
